<svg xmlns="http://www.w3.org/2000/svg" width="430" height="430" style="width:100%;height:100%;transform:translate3d(0,0,0);content-visibility:visible" viewBox="0 0 430 430"><defs><clipPath id="g"><path d="M0 0h430v430H0z"/></clipPath><clipPath id="k"><path d="M0 0h430v430H0z"/></clipPath><clipPath id="h"><path d="M0 0h430v430H0z"/></clipPath><filter id="a" width="100%" height="100%" x="0%" y="0%" filterUnits="objectBoundingBox"><feComponentTransfer in="SourceGraphic"><feFuncA tableValues="1.0 0.0" type="table"/></feComponentTransfer></filter><filter id="c" width="100%" height="100%" x="0%" y="0%" filterUnits="objectBoundingBox"><feComponentTransfer in="SourceGraphic"><feFuncA tableValues="1.0 0.0" type="table"/></feComponentTransfer></filter><filter id="e" width="100%" height="100%" x="0%" y="0%" filterUnits="objectBoundingBox"><feComponentTransfer in="SourceGraphic"><feFuncA tableValues="1.0 0.0" type="table"/></feComponentTransfer></filter><mask id="l" mask-type="alpha"><g filter="url(#a)"><path fill="#fff" d="M0 0h430v430H0z" opacity="0"/><use xmlns:ns1="http://www.w3.org/1999/xlink" ns1:href="#b"/></g></mask><mask id="j" mask-type="alpha"><g filter="url(#c)"><path fill="#fff" d="M0 0h430v430H0z" opacity="0"/><use xmlns:ns2="http://www.w3.org/1999/xlink" ns2:href="#d"/></g></mask><mask id="i" mask-type="alpha"><g filter="url(#e)"><path fill="#fff" d="M0 0h430v430H0z" opacity="0"/><use xmlns:ns3="http://www.w3.org/1999/xlink" ns3:href="#f"/></g></mask><path id="d" style="display:none"/><path id="f" style="display:none"/><g id="b" fill="#FFF" style="display:block"><path d="M241.687 321.715H54.881V54.911h106.746l80.06 80.029v186.775z"/><path d="M241.687 134.94h-80.06V54.912l80.06 80.028z"/></g></defs><g clip-path="url(#g)"><g clip-path="url(#h)" style="display:none"><path fill="none" class="secondary" style="display:none"/><path fill="none" class="secondary" style="display:none"/><g mask="url(#i)" style="display:none"><path/><path fill="none" class="primary"/><path/><path fill="none" class="primary"/></g><g mask="url(#j)" style="display:none"><path/><path fill="none" class="primary"/><path/><path fill="none" class="primary"/></g><g fill="none" style="display:none"><path class="primary"/><path class="primary"/></g></g><g fill="none" clip-path="url(#k)" style="display:block"><path stroke="#08A88A" stroke-linecap="round" stroke-linejoin="round" stroke-width="12" d="M-61.313-45.246c45.365 3.655 86.464 29.134 109.818 68.76l12.808 21.732" class="secondary" style="display:block" transform="translate(303 100.804)"/><path stroke="#08A88A" stroke-linecap="round" stroke-linejoin="round" stroke-width="12" d="m-14.939 5.794 23.781 6.097 6.097-23.782" class="secondary" style="display:block" transform="translate(355.457 134.16)"/><path class="secondary" style="display:none"/><path class="secondary" style="display:none"/><g stroke="#121331" stroke-linecap="round" stroke-linejoin="round" stroke-width="12" mask="url(#l)" style="display:block"><path d="M108.285 375.119V188.313h266.804v106.746l-80.029 80.06H108.285z" class="primary"/><path d="M295.06 375.119v-80.06h80.028l-80.028 80.06z" class="primary"/></g><g stroke="#121331" stroke-linecap="round" stroke-linejoin="round" stroke-width="12" style="display:block"><path d="M241.687 321.715H54.881V54.911h106.746l80.06 80.029v186.775z" class="primary"/><path d="M241.687 134.94h-80.06V54.912l80.06 80.028z" class="primary"/></g></g></g></svg>